<svg xmlns="http://www.w3.org/2000/svg" width="16.25" height="22.13" viewBox="0 0 16.25 22.13">
  <g id="Grupo_124" data-name="Grupo 124" transform="translate(-6758.082 -2652.501)">
    <g id="Grupo_123" data-name="Grupo 123" transform="translate(6758.082 2652.501)">
      <g id="Grupo_122" data-name="Grupo 122">
        <path id="Caminho_67" data-name="Caminho 67" d="M6725.562,2609.711a3.4,3.4,0,0,0,2.358-3.1c.155-2.189-2.221-3.514-4.19-4.094l.657-3.2-1.976-.4-.652,3.175-1.325-.272.651-3.175-1.976-.406-.651,3.176-3.98-.817-.419,2.047,1.482.3c.663.136.947.4.837.937l-1.8,8.792c-.151.734-.563.884-.958.8l-1.511-.31-.428,2.089,3.839.788-.666,3.246,1.99.408.666-3.246,1.326.272-.666,3.246,1.935.4.666-3.246.423.087c4.063.834,5.827-.879,6.383-3.588A3.589,3.589,0,0,0,6725.562,2609.711Zm-5.574-5.731,1.411.29c.988.2,2.9.771,2.571,2.38a2.032,2.032,0,0,1-2.167,1.747l-2.611-.535Zm.1,10.609,0-.013-2.187-.449.869-4.234,2.54.521c.593.122,2.782.777,2.458,2.357S6722.208,2615.023,6720.09,2614.589Z" transform="translate(-6711.677 -2598.226)" fill="#ffb251"/>
      </g>
    </g>
  </g>
</svg>
