<svg xmlns="http://www.w3.org/2000/svg" width="14.392" height="19.612" viewBox="0 0 14.392 19.612">
  <path id="Caminho_73" data-name="Caminho 73" d="M4587.934,2068.361v-1.877a7.28,7.28,0,0,1-4.614-1.518,4.94,4.94,0,0,1-1.654-3.893h4.271a3.156,3.156,0,0,0,.523,1.811,1.78,1.78,0,0,0,1.392.585l.012-3.644a10.811,10.811,0,0,1-4.561-1.816,3.768,3.768,0,0,1-1.4-3.064,4.114,4.114,0,0,1,1.677-3.418,7.447,7.447,0,0,1,4.52-1.353v-1.425h1.857v1.4a6.707,6.707,0,0,1,4.236,1.331,4.6,4.6,0,0,1,1.614,3.528h-4.062a2.358,2.358,0,0,0-.517-1.48,1.746,1.746,0,0,0-1.317-.53v3.345a11.47,11.47,0,0,1,4.752,1.949,3.988,3.988,0,0,1,1.4,3.208,4.285,4.285,0,0,1-1.584,3.584,8.438,8.438,0,0,1-4.765,1.419v1.854Zm.278-12.4v-3h-.092a2.586,2.586,0,0,0-1.515.365,1.271,1.271,0,0,0-.5,1.1,1.083,1.083,0,0,0,.47.911A4.768,4.768,0,0,0,4588.212,2055.96Zm1.382,7.509a3.108,3.108,0,0,0,1.688-.376,1.243,1.243,0,0,0,.574-1.115,1.229,1.229,0,0,0-.487-1.021,5.281,5.281,0,0,0-1.775-.724Z" transform="translate(-4581.666 -2048.749)" fill="#639c55"/>
</svg>
