<svg id="Grupo_180" data-name="Grupo 180" xmlns="http://www.w3.org/2000/svg" width="22.713" height="16.17" viewBox="0 0 22.713 16.17">
  <path id="Caminho_81" data-name="Caminho 81" d="M4703.7,2170.14v-1.548a5.535,5.535,0,0,1-3.619-1.251,4.168,4.168,0,0,1-1.3-3.21h3.35a2.692,2.692,0,0,0,.41,1.493,1.367,1.367,0,0,0,1.092.483l.01-3a8.276,8.276,0,0,1-3.579-1.5,3.176,3.176,0,0,1-1.1-2.527,3.451,3.451,0,0,1,1.316-2.818,5.643,5.643,0,0,1,3.546-1.115v-1.175h1.456v1.157a5.092,5.092,0,0,1,3.324,1.1,3.871,3.871,0,0,1,1.265,2.909h-3.186a2.009,2.009,0,0,0-.406-1.22,1.339,1.339,0,0,0-1.033-.437v2.758a8.782,8.782,0,0,1,3.728,1.607,3.367,3.367,0,0,1,1.1,2.645,3.612,3.612,0,0,1-1.243,2.955,6.407,6.407,0,0,1-3.738,1.17v1.529Zm.219-10.224v-2.477h-.073a1.946,1.946,0,0,0-1.188.3,1.069,1.069,0,0,0-.4.91.908.908,0,0,0,.368.751A3.646,3.646,0,0,0,4703.921,2159.916Zm1.083,6.191a2.338,2.338,0,0,0,1.325-.31,1.143,1.143,0,0,0,.068-1.761,4.023,4.023,0,0,0-1.393-.6Z" transform="translate(-4687.363 -2153.97)" fill="#639c55"/>
  <g id="Grupo_179" data-name="Grupo 179" transform="translate(0 1.233)">
    <path id="Caminho_82" data-name="Caminho 82" d="M4694.591,2168.705l-2.918-5.359h-1.106v5.359h-3.2v-13.5h5.148c2.595,0,5.17.992,5.17,4.081a3.674,3.674,0,0,1-2.805,3.643l3.528,5.778Zm-2.308-10.87h-1.735v3.146h1.544c1.05,0,2.365-.267,2.365-1.64C4694.457,2158.082,4693.255,2157.835,4692.283,2157.835Z" transform="translate(-4687.363 -2155.203)" fill="#639c55"/>
  </g>
</svg>
